<?xml version="1.0" encoding="UTF-8"?>
<svg version="1.1" xmlns="http://www.w3.org/2000/svg" width="1024" height="1024">
<path d="M0 0 C337.92 0 675.84 0 1024 0 C1024 337.92 1024 675.84 1024 1024 C686.08 1024 348.16 1024 0 1024 C0 686.08 0 348.16 0 0 Z " fill="#020201" transform="translate(0,0)"/>
<path d="M0 0 C6.62747372 0.2625917 13.25725897 0.36013875 19.88861084 0.47637939 C66.54398518 1.42606281 66.54398518 1.42606281 83.48822021 6.59552002 C84.7605249 6.98356812 84.7605249 6.98356812 86.05853271 7.37945557 C99.4828324 11.65253897 110.79925185 18.04036704 121.67572021 26.97052002 C122.72952881 27.77876221 122.72952881 27.77876221 123.80462646 28.60333252 C136.19391417 38.56482041 145.33908304 53.38787875 150.98822021 68.03302002 C151.2309668 68.65740967 151.47371338 69.28179932 151.72381592 69.92510986 C155.50867623 80.3063645 156.0659175 90.75084624 156.05072021 101.72052002 C156.05017639 102.38382324 156.04963257 103.04712646 156.04907227 103.73052979 C156.01107897 113.80574276 155.41518643 122.53448379 151.67572021 131.97052002 C151.25161865 133.13841064 150.82751709 134.30630127 150.39056396 135.50958252 C146.0137223 146.70161776 139.39957278 155.84850082 131.67572021 164.97052002 C132.51876709 165.06333252 133.36181396 165.15614502 134.23040771 165.25177002 C138.14144492 166.06767801 141.32987567 167.57071312 144.80072021 169.47052002 C145.4545166 169.82509277 146.10831299 170.17966553 146.78192139 170.54498291 C153.19785022 174.11545784 158.99672082 178.31823238 164.67572021 182.97052002 C165.52650146 183.65630127 166.37728271 184.34208252 167.25384521 185.04864502 C187.80791441 202.50021321 201.70477391 229.3764146 204.45599365 256.16680908 C206.53743433 282.72599218 204.27543465 308.20315626 191.67572021 331.97052002 C191.08532959 333.09844971 190.49493896 334.22637939 189.88665771 335.38848877 C186.13336883 342.14955025 181.67845068 348.09081688 176.67572021 353.97052002 C176.11111084 354.66919189 175.54650146 355.36786377 174.96478271 356.08770752 C156.79264129 378.01371854 127.22931948 389.48597406 99.67572021 392.97052002 C93.51149662 393.447934 87.33016984 393.35264317 81.15228271 393.31109619 C79.35684219 393.3102476 77.56140062 393.31072958 75.76596069 393.31242371 C70.94465402 393.31327603 66.12357636 393.29577554 61.30232239 393.27470183 C56.2441833 393.25580618 51.18603759 393.25417452 46.12786865 393.25062561 C36.5731235 393.2413427 27.0184827 393.21678032 17.46378326 393.18657714 C6.57608878 393.15291552 -4.31161098 393.13651769 -15.19934464 393.12149084 C-37.57438062 393.09022697 -59.94932432 393.03754036 -82.32427979 392.97052002 C-80.58967076 389.34251334 -78.45047395 386.44391426 -75.94927979 383.28302002 C-66.9567261 371.75827897 -58.76127402 359.65704013 -50.51177979 347.59552002 C-49.90181152 346.7048584 -49.29184326 345.81419678 -48.66339111 344.89654541 C-48.07066406 344.02634766 -47.47793701 343.1561499 -46.86724854 342.25958252 C-46.02775964 341.04684158 -46.02775964 341.04684158 -45.17131138 339.80960083 C-43.28784779 337.02126144 -43.28784779 337.02126144 -41.85008907 334.09321594 C-37.84860467 326.58422285 -37.84860467 326.58422285 -33.83697701 324.96911621 C-30.79463484 324.59585757 -27.92339837 324.57688083 -24.85968018 324.67755127 C-23.72368378 324.67101028 -22.58768738 324.6644693 -21.41726685 324.6577301 C-17.66679835 324.64841643 -13.92175087 324.7160112 -10.17193604 324.78302002 C-7.55226751 324.78872101 -4.9325826 324.78912751 -2.31291199 324.78448486 C3.88401808 324.78115161 10.0792377 324.83108687 16.27571255 324.90255356 C27.99026793 325.03545719 39.70540912 325.0550115 51.42059517 325.07901001 C55.2471418 325.0951781 59.07279098 325.13566498 62.89909363 325.1807251 C83.50745673 325.35834192 102.95930437 324.5518964 119.26556396 310.35723877 C129.2486168 300.47126586 133.57437789 286.91425517 133.98822021 273.09552002 C133.74696691 262.01205956 130.24549151 253.40344744 124.67572021 243.97052002 C124.34700928 243.22802002 124.01829834 242.48552002 123.67962646 241.72052002 C122.73245874 239.6196878 122.73245874 239.6196878 119.67572021 238.97052002 C119.67572021 238.31052002 119.67572021 237.65052002 119.67572021 236.97052002 C119.10724365 236.69981689 118.53876709 236.42911377 117.95306396 236.15020752 C115.60310088 234.93290245 113.45560086 233.53887403 111.23822021 232.09552002 C98.84939054 224.59991153 85.82468695 223.82692298 71.75408936 223.76519775 C70.34420492 223.75560698 68.9343233 223.74559622 67.52444458 223.73519897 C63.7130152 223.70827365 59.9015736 223.68719749 56.09010243 223.66719699 C52.10091402 223.64526068 48.11176276 223.61790955 44.12260437 223.59114075 C36.57571523 223.54131687 29.02880536 223.49634001 21.48187584 223.45311838 C12.88693111 223.40365768 4.29202368 223.34877243 -4.30288494 223.29343879 C-21.97664856 223.17977704 -39.65044741 223.07290386 -57.32427979 222.97052002 C-56.21016034 221.20915349 -55.09465929 219.44866082 -53.97857666 217.6885376 C-53.35753052 216.70806961 -52.73648438 215.72760162 -52.09661865 214.71742249 C-50.7278471 212.59599863 -49.33619643 210.5253346 -47.85552979 208.48223877 C-47.18521729 207.55024658 -46.51490479 206.61825439 -45.82427979 205.65802002 C-45.13334229 204.71313721 -44.44240479 203.76825439 -43.73052979 202.79473877 C-41.95159611 199.22204697 -42.09267611 197.73893285 -43.32427979 193.97052002 C-45.11279774 191.10497438 -45.11279774 191.10497438 -47.51177979 188.28302002 C-48.41512274 187.15725861 -49.3160099 186.02952379 -50.21490479 184.90020752 C-50.70797119 184.28371338 -51.2010376 183.66721924 -51.70904541 183.03204346 C-54.8203802 179.06104724 -57.78141549 174.97765452 -60.76177979 170.90802002 C-61.94787462 169.29205893 -63.13406685 167.67616934 -64.32037354 166.06036377 C-64.82753906 165.36805664 -65.33470459 164.67574951 -65.85723877 163.96246338 C-67.33473043 161.95633017 -68.82824687 159.96284781 -70.32427979 157.97052002 C-69.0488028 157.96243317 -67.77332581 157.95434631 -66.459198 157.9460144 C-54.36804941 157.86812335 -42.27700743 157.78028034 -30.18599892 157.68299294 C-23.97169804 157.63330281 -17.75741195 157.58697305 -11.54302979 157.54864502 C-5.53233083 157.51144422 0.47823538 157.46499589 6.48881912 157.41245651 C8.7681912 157.39409553 11.04759153 157.37892216 13.32700729 157.36717606 C46.85813943 158.13552335 46.85813943 158.13552335 75.92572021 143.82598877 C84.43614302 133.35303312 87.73144458 121.29904016 86.67572021 107.97052002 C85.46626314 100.33582225 83.28228742 94.17558057 78.67572021 87.97052002 C78.09822021 87.10427002 77.52072021 86.23802002 76.92572021 85.34552002 C59.48875691 66.93983653 29.8411252 69.85898953 6.71429443 69.21124268 C-11.75278925 68.71746763 -30.22925097 68.61131864 -48.70147705 68.43829346 C-54.09334755 68.38704858 -59.48517835 68.33191369 -64.87701416 68.27716064 C-75.35940174 68.17126006 -85.84182454 68.06947997 -96.32427979 67.97052002 C-96.32427979 67.31052002 -96.32427979 66.65052002 -96.32427979 65.97052002 C-95.66427979 65.97052002 -95.00427979 65.97052002 -94.32427979 65.97052002 C-94.08580322 65.28473877 -93.84732666 64.59895752 -93.60162354 63.89239502 C-92.06987289 60.38857398 -90.04282059 57.35824042 -87.88677979 54.22052002 C-86.97034019 52.86708064 -86.05501354 51.51288714 -85.14068604 50.15802002 C-84.67033936 49.46192627 -84.19999268 48.76583252 -83.71539307 48.04864502 C-82.005202 45.49386328 -80.33311367 42.91720852 -78.68655396 40.32099915 C-77.80677856 38.96448083 -76.90216291 37.62361073 -75.96862793 36.30351257 C-72.82139839 31.7554878 -70.69211574 27.43362867 -68.81573486 22.22467041 C-56.54376392 -7.11373505 -27.34283817 -1.2122606 0 0 Z " fill="#FCFCFC" transform="translate(631.3242797851563,313.02947998046875)"/>
<path d="M0 0 C1.62677509 0.00028238 3.2535503 0.00012315 4.88032532 -0.0004425 C9.27848291 -0.0007285 13.67661303 0.00513625 18.07476425 0.01213145 C22.67785247 0.01839793 27.28094138 0.01897139 31.8840332 0.02015686 C40.59255919 0.02326048 49.30107257 0.03146077 58.00959301 0.04150635 C67.9273632 0.05269762 77.845134 0.05818553 87.76290894 0.06320179 C108.15705048 0.07364421 128.5511807 0.09122485 148.9453125 0.11352539 C144.57732171 9.01030171 138.63498863 17.14970667 133.09375 25.34790039 C132.16086655 26.73129608 132.16086655 26.73129608 131.20913696 28.14263916 C129.90736927 30.07236642 128.60490294 32.00162257 127.30175781 33.93041992 C125.31652689 36.86912917 123.33388414 39.80957185 121.3515625 42.75024414 C120.07827722 44.63706563 118.80484483 46.52378784 117.53125 48.41040039 C116.94467621 49.2803363 116.35810242 50.15027222 115.75375366 51.04656982 C115.19612335 51.87142883 114.63849304 52.69628784 114.06396484 53.54614258 C113.58099945 54.26131042 113.09803406 54.97647827 112.60043335 55.71331787 C112.05424347 56.50538635 111.50805359 57.29745483 110.9453125 58.11352539 C110.62114475 58.71141467 110.29697701 59.30930395 109.96298599 59.92531109 C107.1216705 64.72950381 107.1216705 64.72950381 103.99060631 65.75163841 C101.53998715 66.00286932 99.1778824 66.02221915 96.71484375 65.96826172 C95.79199585 65.97582489 94.86914795 65.98338806 93.91833496 65.99118042 C90.86395114 66.00839736 87.81205372 65.97670898 84.7578125 65.94555664 C82.61807344 65.94986865 80.47833878 65.95754742 78.33862305 65.96842957 C72.69109688 65.98938232 67.04443622 65.97029743 61.39697266 65.94116211 C52.41697512 65.90178173 43.43690356 65.92497248 34.45687866 65.94415855 C31.35041111 65.94551617 28.24435229 65.93128385 25.13793945 65.91401672 C8.81916989 65.86598709 -7.92687099 66.20837812 -23.8046875 70.36352539 C-24.66408936 70.57968506 -25.52349121 70.79584473 -26.40893555 71.01855469 C-51.054884 77.40723276 -71.80797658 88.31693258 -91.0546875 105.11352539 C-91.81265625 105.77481445 -92.570625 106.43610352 -93.3515625 107.11743164 C-115.10857044 127.44711814 -127.29335904 158.90383746 -128.37109375 188.21899414 C-129.10053372 220.62549793 -121.2673707 252.43835017 -99.0546875 277.11352539 C-98.48492187 277.65364258 -97.91515625 278.19375977 -97.328125 278.75024414 C-96.0546875 280.11352539 -96.0546875 280.11352539 -96.0546875 282.11352539 C-95.15363281 282.51571289 -95.15363281 282.51571289 -94.234375 282.92602539 C-92.01962894 284.1326254 -90.84208879 285.24444718 -89.1796875 287.11352539 C-69.89645292 306.80530307 -41.69024082 316.94769624 -15.0546875 321.11352539 C-13.45536377 321.38169067 -13.45536377 321.38169067 -11.82373047 321.65527344 C-1.95712304 323.16606847 7.69630928 323.38995599 17.66015625 323.31933594 C20.30999479 323.30109641 22.95948011 323.29882718 25.609375 323.29907227 C41.46089671 323.26648457 57.2853086 322.76517499 72.9453125 320.11352539 C73.77289063 319.97495117 74.60046875 319.83637695 75.453125 319.69360352 C97.80271497 315.81301909 121.11387044 309.41495218 140.98583984 298.20581055 C143.21892518 296.9610032 145.47998184 295.77757135 147.74609375 294.59399414 C160.6134657 287.79843641 172.34658434 279.87174869 183.9453125 271.11352539 C184.6053125 271.44352539 185.2653125 271.77352539 185.9453125 272.11352539 C177.59942997 293.48990027 168.68751023 314.35060365 156.9453125 334.11352539 C156.58439514 334.72675659 156.22347778 335.33998779 155.85162354 335.97180176 C145.01366703 354.32930835 135.94672541 368.8767221 114.9453125 376.11352539 C113.46615553 376.69683244 111.9894527 377.28641237 110.515625 377.88305664 C106.38270719 379.50252657 102.19756596 380.84560213 97.9453125 382.11352539 C97.23294434 382.33202148 96.52057617 382.55051758 95.78662109 382.77563477 C73.04610193 389.64563878 50.12367113 391.75570746 26.44775391 391.52514648 C22.55214357 391.48835379 18.65748612 391.48413125 14.76171875 391.48461914 C0.71576013 391.4454761 -13.12513292 390.96882058 -27.0546875 389.11352539 C-28.71419434 388.8947876 -28.71419434 388.8947876 -30.40722656 388.67163086 C-70.93587718 382.82417958 -107.37714527 366.15708879 -138.0546875 339.11352539 C-138.82554687 338.45352539 -139.59640625 337.79352539 -140.390625 337.11352539 C-175.67978964 306.82703926 -197.19893545 259.90824086 -202.0546875 214.11352539 C-202.44784049 208.28554332 -202.49317587 202.45275894 -202.4921875 196.61352539 C-202.49428726 195.41646469 -202.49428726 195.41646469 -202.49642944 194.19522095 C-202.46583091 172.76959292 -199.74983383 151.2311946 -192.0546875 131.11352539 C-191.77254395 130.34959473 -191.49040039 129.58566406 -191.19970703 128.79858398 C-172.77932008 79.15422721 -137.01679492 41.32680347 -88.99267578 18.98803711 C-68.08004895 9.55127353 -46.73070301 4.07696938 -24.0546875 1.11352539 C-23.01445435 0.94415466 -21.97422119 0.77478394 -20.90246582 0.60028076 C-13.97492161 -0.2553805 -6.96839532 -0.01695774 0 0 Z " fill="#FCFCFD" transform="translate(394.0546875,314.886474609375)"/>
<path d="M0 0 C2.90305693 1.3062022 5.14777226 3.13282428 7.5625 5.1875 C8.94387437 6.29183686 10.3253897 7.39599743 11.70703125 8.5 C12.41037598 9.07621094 13.1137207 9.65242188 13.83837891 10.24609375 C17.41074072 13.14465341 21.0856119 15.90693896 24.75 18.6875 C26.18400199 19.78592558 27.61760565 20.8848714 29.05078125 21.984375 C32.3286097 24.49292515 35.62719506 26.97189356 38.9375 29.4375 C45.57142132 34.39471593 52.09089077 39.49723193 58.62109375 44.58984375 C62.23608669 47.4082469 65.86349844 50.2094103 69.5 53 C78.4852752 59.89960906 87.41442988 66.87151119 96.35253906 73.83203125 C106.92558942 82.06481911 117.51133079 90.27936024 128.16015625 98.4140625 C134.64143593 103.37155511 141.04337228 108.41662655 147.40258789 113.52978516 C151.50209904 116.81977125 155.63753582 120.05639448 159.8125 123.25 C176.64078385 136.13577592 176.64078385 136.13577592 179 139 C178.89807368 144.40209496 177.45499158 147.8732045 174 152 C170.79452817 153.95889945 167.13075513 154.79129891 163.35546875 154.69921875 C158.24224813 153.18136387 154.45051029 148.87076578 150.55566406 145.359375 C148.1819818 143.2851969 145.6626902 141.43023999 143.125 139.5625 C138.7142583 136.29613587 134.36928956 132.96359531 130.0625 129.5625 C125.12318975 125.66361199 120.15842464 121.80157059 115.16503906 117.97192383 C110.53306894 114.41646555 105.92070742 110.83619012 101.3125 107.25 C100.55243652 106.65872314 99.79237305 106.06744629 99.00927734 105.45825195 C95.1399956 102.447231 91.27330562 99.43294744 87.41015625 96.4140625 C80.26045781 90.83219956 73.08922142 85.2905651 65.8125 79.875 C59.91919418 75.48793093 54.15155412 70.96795875 48.43066406 66.35888672 C39.21653048 58.93949344 29.78009533 51.82598588 20.30200195 44.7487793 C14.29679973 40.25114125 8.37720367 35.64757357 2.46606445 31.02734375 C-2.90609427 26.833522 -8.3312816 22.72188637 -13.8125 18.671875 C-16 17 -16 17 -18 15 C-17.89170249 8.50214919 -16.57245464 5.57245464 -12 1 C-8.24785955 -0.87607023 -4.0843095 -0.54918277 0 0 Z " fill="#FAFAFB" transform="translate(352,434)"/>
<path d="M0 0 C0.79374023 0.24137695 1.58748047 0.48275391 2.40527344 0.73144531 C23.71452227 7.28496671 42.45698957 17.67767948 58.76953125 32.92578125 C60.81160319 34.82480087 62.91451582 36.59837655 65.0625 38.375 C69.11998276 41.90999001 72.41330813 45.93614985 75.7421875 50.15234375 C77.24861269 52.05231601 78.79628263 53.92029386 80.3828125 55.75390625 C81.49269531 57.05134766 81.49269531 57.05134766 82.625 58.375 C83.29789063 59.14585937 83.97078125 59.91671875 84.6640625 60.7109375 C86 63 86 63 85.91796875 65.5078125 C81.17413537 78.38681547 65.26554308 91.21069652 55 100 C51.19866558 98.32076975 48.02917298 95.88537166 44.75 93.375 C44.19570313 92.95476562 43.64140625 92.53453125 43.0703125 92.1015625 C41.71133337 91.07061281 40.35536165 90.03570089 39 89 C43.24809969 84.68057027 47.67913863 80.59865726 52.18359375 76.54882812 C55.79829663 73.25306962 58.94603933 69.82314853 62 66 C59.8122559 61.23720782 56.54046407 57.81526543 53 54 C52.20335937 53.13761719 51.40671875 52.27523437 50.5859375 51.38671875 C36.73537849 36.9437317 19.17018321 25.92081253 0 20 C-0.495 20.495 -0.495 20.495 -1 21 C-0.56429687 21.3403125 -0.12859375 21.680625 0.3203125 22.03125 C5.03596591 25.8690978 8.7715491 29.83802631 12 35 C12.48984375 35.77085937 12.9796875 36.54171875 13.484375 37.3359375 C18.91396722 47.73757203 17.44930354 59.60289725 17 71 C11.00089569 67.15422003 5.43490636 63.04029263 0 58.4375 C-7.83729496 51.89187503 -15.87573705 45.65820126 -24.02050781 39.50195312 C-27.07058479 37.18768653 -30.09701447 34.84304715 -33.125 32.5 C-36.47042415 29.91432713 -39.82713821 27.39314263 -43.3125 25 C-44.199375 24.34 -45.08625 23.68 -46 23 C-46 22.34 -46 21.68 -46 21 C-44.06374902 20.01836578 -42.12595461 19.03977546 -40.1875 18.0625 C-39.10855469 17.51722656 -38.02960938 16.97195313 -36.91796875 16.41015625 C-34 15 -34 15 -31 14 C-33.06242617 13.97282308 -35.12495703 13.9535242 -37.1875 13.9375 C-38.91033203 13.92009766 -38.91033203 13.92009766 -40.66796875 13.90234375 C-43.87842693 13.90212355 -43.87842693 13.90212355 -46.48828125 14.50390625 C-50.76458819 15.34852675 -54.19475234 16.02571821 -58.15185547 13.77734375 C-60.48723838 12.09509787 -62.71670982 10.33067708 -64.9375 8.5 C-65.71673828 7.87996094 -66.49597656 7.25992187 -67.29882812 6.62109375 C-69.21184148 5.09537758 -71.11098233 3.55524985 -73 2 C-72.67 1.34 -72.34 0.68 -72 0 C-69.41015625 -0.81640625 -69.41015625 -0.81640625 -66.0625 -1.5625 C-64.98097656 -1.81128906 -63.89945312 -2.06007813 -62.78515625 -2.31640625 C-42.75825201 -5.93323622 -19.49502602 -6.23734059 0 0 Z " fill="#FAFAFA" transform="translate(473,449)"/>
<path d="M0 0 C5.26630019 3.40554079 10.2703193 6.87668862 15 11 C12.71198828 14.14601612 10.2532225 16.73189631 7.3125 19.25 C-1.57732279 26.62406039 -1.57732279 26.62406039 -8 36 C10.60194431 56.94886686 32.55320531 73.55856134 60 81 C59.50371094 80.6596875 59.00742187 80.319375 58.49609375 79.96875 C47.08521046 71.82739873 39.55765869 61.06181642 36.45703125 47.28125 C35.60904666 41.19315548 35.77373479 35.13430128 36 29 C38.97981816 30.39571702 41.54970176 32.02366434 44.1953125 33.9765625 C45.38519775 34.85296387 45.38519775 34.85296387 46.59912109 35.74707031 C47.43266113 36.36678711 48.26620117 36.98650391 49.125 37.625 C50.41204834 38.57777832 50.41204834 38.57777832 51.72509766 39.54980469 C56.77269476 43.30076255 61.75258082 47.11388732 66.62890625 51.0859375 C71.11771268 54.70952094 75.72005509 58.18903535 80.30029297 61.69580078 C82.02750545 63.02110516 83.7506337 64.35155439 85.47265625 65.68359375 C86.60672801 66.55995125 87.7408418 67.43625437 88.875 68.3125 C89.41705078 68.73192871 89.95910156 69.15135742 90.51757812 69.58349609 C93.39864354 71.80305607 96.31387472 73.94259312 99.3125 76 C100.199375 76.66 101.08625 77.32 102 78 C102 78.66 102 79.32 102 80 C100.75539217 80.67667998 99.50403104 81.34094719 98.25 82 C97.55390625 82.37125 96.8578125 82.7425 96.140625 83.125 C94 84 94 84 90 84 C90 84.66 90 85.32 90 86 C91.86978516 85.55720703 91.86978516 85.55720703 93.77734375 85.10546875 C101.51016568 83.61416061 108.16359809 82.36364947 115.11328125 86.76171875 C119.34158335 89.87476865 123.26146986 93.31580042 127 97 C119.14838866 104.85161134 98.42854405 103.41820489 88.1875 103.4375 C77.49560951 103.34114544 67.36105507 102.65778889 57 100 C55.09927734 99.52433594 55.09927734 99.52433594 53.16015625 99.0390625 C21.42758135 90.42377581 -6.70508748 68.99310486 -27.125 43.625 C-27.61121826 43.02961426 -28.09743652 42.43422852 -28.59838867 41.82080078 C-31.18451829 38.5198175 -32 37.3314541 -32 33 C-29.36981537 29.05147591 -26.13394187 25.55690029 -23 22 C-22.55624023 21.49307617 -22.11248047 20.98615234 -21.65527344 20.46386719 C-6.50245168 3.25122584 -6.50245168 3.25122584 0 0 Z " fill="#FAFAFA" transform="translate(346,479)"/>
</svg>
